<svg width="30" height="30" viewBox="0 0 30 30" fill="none" xmlns="http://www.w3.org/2000/svg">
<mask id="mask0_2006_3529" style="mask-type:alpha" maskUnits="userSpaceOnUse" x="3" y="3" width="24" height="24">
<rect x="3" y="27" width="24" height="24" transform="rotate(-90 3 27)" fill="#D9D9D9"/>
</mask>
<g mask="url(#mask0_2006_3529)">
<path d="M7.18164 11.1951L7.18164 13.2979L9.10382 13.2979L9.10382 11.1951L7.18164 11.1951Z" fill="white"/>
<path d="M7.36405 11.3982L8.92218 11.3982L8.92218 13.1027L7.36405 13.1027L7.36405 11.3982ZM7 11L7 13.501L9.28623 13.501L9.28623 11L7 11Z" fill="white"/>
<path d="M9.46875 13.6961L9.46875 15.7988L11.3909 15.7988L11.3909 13.6961L9.46875 13.6961Z" fill="white"/>
<path d="M9.65116 13.8953L11.2093 13.8953L11.2093 15.5998L9.65116 15.5998L9.65116 13.8953ZM9.28711 13.4971L9.28711 15.998L11.5733 15.998L11.5733 13.4971L9.28711 13.4971Z" fill="white"/>
<path d="M11.7539 16.1971L11.7539 18.2998L13.6761 18.2998L13.6761 16.1971L11.7539 16.1971Z" fill="white"/>
<path d="M11.9363 16.3963L13.4944 16.3963L13.4944 18.1008L11.9363 18.1008L11.9363 16.3963ZM11.5723 15.998L11.5723 18.499L13.8585 18.499L13.8585 15.998L11.5723 15.998Z" fill="white"/>
<path d="M16.3223 16.1971L16.3223 18.2998L18.2444 18.2998L18.2444 16.1971L16.3223 16.1971Z" fill="white"/>
<path d="M16.5047 16.3963L18.0628 16.3963L18.0628 18.1008L16.5047 18.1008L16.5047 16.3963ZM16.1406 15.998L16.1406 18.499L18.4269 18.499L18.4269 15.998L16.1406 15.998Z" fill="white"/>
<path d="M14.041 18.698L14.041 20.8008L15.9632 20.8008L15.9632 18.698L14.041 18.698Z" fill="white"/>
<path d="M14.2234 18.8973L15.7816 18.8973L15.7816 20.6018L14.2234 20.6018L14.2234 18.8973ZM13.8594 18.499L13.8594 21L16.1456 21L16.1456 18.499L13.8594 18.499Z" fill="white"/>
<path d="M20.8945 11.1951L20.8945 13.2979L22.8167 13.2979L22.8167 11.1951L20.8945 11.1951Z" fill="white"/>
<path d="M21.0769 11.3982L22.6351 11.3982L22.6351 13.1027L21.0769 13.1027L21.0769 11.3982ZM20.7129 11L20.7129 13.501L22.9991 13.501L22.9991 11L20.7129 11Z" fill="white"/>
<path d="M18.6094 13.6961L18.6094 15.7988L20.5316 15.7988L20.5316 13.6961L18.6094 13.6961Z" fill="white"/>
<path d="M18.7918 13.8953L20.3499 13.8953L20.3499 15.5998L18.7918 15.5998L18.7918 13.8953ZM18.4277 13.4971L18.4277 15.998L20.714 15.998L20.714 13.4971L18.4277 13.4971Z" fill="white"/>
</g>
</svg>
