<svg width="30" height="30" viewBox="0 0 30 30" fill="none" xmlns="http://www.w3.org/2000/svg">
<mask id="mask0_2006_3554" style="mask-type:alpha" maskUnits="userSpaceOnUse" x="7" y="7" width="16" height="17">
<rect x="7" y="7.87891" width="16" height="16" fill="#D9D9D9"/>
</mask>
<g mask="url(#mask0_2006_3554)">
</g>
<g clip-path="url(#clip0_2006_3554)">
<path d="M18.568 8.70483H16.6055V10.3867H18.568V8.70483Z" fill="#181818"/>
<path d="M18.3786 8.8642V10.2276H16.7877V8.8642H18.3786ZM18.7503 8.54565H16.416V10.5461H18.7503V8.54565Z" fill="#181818"/>
<path d="M16.2321 10.7053H14.2695V12.3872H16.2321V10.7053Z" fill="#181818"/>
<path d="M16.0465 10.8647V12.2281H14.4557V10.8647H16.0465ZM16.4182 10.5461H14.084V12.5466H16.4182V10.5461Z" fill="#181818"/>
<path d="M13.8981 12.7058H11.9355V14.3877H13.8981V12.7058Z" fill="#181818"/>
<path d="M13.7126 12.8652V14.2285H12.1217V12.8652H13.7126ZM14.0843 12.5466H11.75V14.5471H14.0843V12.5466Z" fill="#181818"/>
<path d="M13.8981 16.7034H11.9355V18.3853H13.8981V16.7034Z" fill="#181818"/>
<path d="M13.7126 16.8627V18.2261H12.1217V16.8627H13.7126ZM14.0843 16.5442H11.75V18.5446H14.0843V16.5442Z" fill="#181818"/>
<path d="M11.5641 14.7063H9.60156V16.3882H11.5641V14.7063Z" fill="#181818"/>
<path d="M11.3786 14.8657V16.229H9.78771V14.8657H11.3786ZM11.7503 14.5471H9.41602V16.5476H11.7503V14.5471Z" fill="#181818"/>
<path d="M18.568 20.7043H16.6055V22.3863H18.568V20.7043Z" fill="#181818"/>
<path d="M18.3786 20.8637V22.2271H16.7877V20.8637H18.3786ZM18.7503 20.5452H16.416V22.5456H18.7503V20.5452Z" fill="#181818"/>
<path d="M16.2321 18.7039H14.2695V20.3858H16.2321V18.7039Z" fill="#181818"/>
<path d="M16.0465 18.8632V20.2266H14.4557V18.8632H16.0465ZM16.4182 18.5447H14.084V20.5451H16.4182V18.5447Z" fill="#181818"/>
</g>
<defs>
<clipPath id="clip0_2006_3554">
<rect width="9.33333" height="14" fill="white" transform="translate(9.41602 8.54565)"/>
</clipPath>
</defs>
</svg>
