<svg width="30" height="30" viewBox="0 0 30 30" fill="none" xmlns="http://www.w3.org/2000/svg">
<mask id="mask0_2006_3616" style="mask-type:alpha" maskUnits="userSpaceOnUse" x="11" y="11" width="8" height="8">
<rect x="11.0273" y="11.1851" width="7.64548" height="7.64548" fill="black"/>
</mask>
<g mask="url(#mask0_2006_3616)">
</g>
<g clip-path="url(#clip0_2006_3616)">
<path d="M9.84216 8.15869H8.16016V9.8407H9.84216V8.15869Z" fill="white"/>
<path d="M9.68201 8.31807V9.68152H8.31856V8.31807H9.68201ZM10.0006 7.99951H8V10.0001H10.0006V7.99951Z" fill="white"/>
<path d="M11.8422 10.1592H10.1602V11.8412H11.8422V10.1592Z" fill="white"/>
<path d="M11.682 10.3186V11.682H10.3186V10.3186H11.682ZM12.0006 10H10V12.0006H12.0006V10Z" fill="white"/>
<path d="M13.8441 12.1599H12.1621V13.8419H13.8441V12.1599Z" fill="white"/>
<path d="M13.684 12.3193V13.6827H12.3205V12.3193H13.684ZM14.0025 12.0007H12.002V14.0013H14.0025V12.0007Z" fill="white"/>
<path d="M17.8422 12.1599H16.1602V13.8419H17.8422V12.1599Z" fill="white"/>
<path d="M17.682 12.3193V13.6827H16.3186V12.3193H17.682ZM18.0006 12.0007H16V14.0013H18.0006V12.0007Z" fill="white"/>
<path d="M15.8422 14.1604H14.1602V15.8424H15.8422V14.1604Z" fill="white"/>
<path d="M15.6801 14.3198V15.6832H14.3166V14.3198H15.6801ZM15.9986 14.0012H13.998V16.0018H15.9986V14.0012Z" fill="white"/>
<path d="M21.8422 8.15869H20.1602V9.8407H21.8422V8.15869Z" fill="white"/>
<path d="M21.682 8.31807V9.68152H20.3186V8.31807H21.682ZM22.0006 7.99951H20V10.0001H22.0006V7.99951Z" fill="white"/>
<path d="M19.8422 10.1592H18.1602V11.8412H19.8422V10.1592Z" fill="white"/>
<path d="M19.682 10.3186V11.682H18.3186V10.3186H19.682ZM20.0006 10H18V12.0006H20.0006V10Z" fill="white"/>
<path d="M21.8422 20.1589H20.1602V21.8409H21.8422V20.1589Z" fill="white"/>
<path d="M21.682 20.3183V21.6818H20.3186V20.3183H21.682ZM22.0006 19.9998H20V22.0003H22.0006V19.9998Z" fill="white"/>
<path d="M19.8422 18.1584H18.1602V19.8405H19.8422V18.1584Z" fill="white"/>
<path d="M19.682 18.3178V19.6813H18.3186V18.3178H19.682ZM20.0006 17.9993H18V19.9998H20.0006V17.9993Z" fill="white"/>
<path d="M17.8422 16.1577H16.1602V17.8397H17.8422V16.1577Z" fill="white"/>
<path d="M17.682 16.3171V17.6805H16.3186V16.3171H17.682ZM18.0006 15.9985H16V17.9991H18.0006V15.9985Z" fill="white"/>
<path d="M13.8441 16.1577H12.1621V17.8397H13.8441V16.1577Z" fill="white"/>
<path d="M13.684 16.3171V17.6805H12.3205V16.3171H13.684ZM14.0025 15.9985H12.002V17.9991H14.0025V15.9985Z" fill="white"/>
<path d="M15.8422 14.1604H14.1602V15.8424H15.8422V14.1604Z" fill="white"/>
<path d="M15.6801 14.3198V15.6832H14.3166V14.3198H15.6801ZM15.9986 14.0012H13.998V16.0018H15.9986V14.0012Z" fill="white"/>
<path d="M9.84216 20.1589H8.16016V21.8409H9.84216V20.1589Z" fill="white"/>
<path d="M9.68201 20.3183V21.6818H8.31856V20.3183H9.68201ZM10.0006 19.9998H8V22.0003H10.0006V19.9998Z" fill="white"/>
<path d="M11.8422 18.1584H10.1602V19.8405H11.8422V18.1584Z" fill="white"/>
<path d="M11.682 18.3178V19.6813H10.3186V18.3178H11.682ZM12.0006 17.9993H10V19.9998H12.0006V17.9993Z" fill="white"/>
</g>
<defs>
<clipPath id="clip0_2006_3616">
<rect width="14.0008" height="14.0008" fill="white" transform="translate(8 7.99951)"/>
</clipPath>
</defs>
</svg>
