<svg width="30" height="30" viewBox="0 0 30 30" fill="none" xmlns="http://www.w3.org/2000/svg">
<mask id="mask0_2006_3681" style="mask-type:alpha" maskUnits="userSpaceOnUse" x="3" y="1" width="24" height="24">
<rect x="3" y="1" width="24" height="24" fill="#D9D9D9"/>
</mask>
<g mask="url(#mask0_2006_3681)">
<path d="M7.66687 20C7.17187 20 5.86523 20 5.86523 20C5.86523 20 5.86687 18.7313 5.86687 18.25V7.75C5.86687 7.26875 5.86523 6.00006 5.86523 6.00006C5.86523 6.00006 7.17187 6 7.66687 6H22.0669C22.5619 6 23.8688 6.00003 23.8688 6.00003C23.8688 6.00003 23.8669 7.26875 23.8669 7.75V18.25C23.8669 18.7313 23.8688 20 23.8688 20C23.8688 20 22.5619 20 22.0669 20H7.66687ZM7.66687 12.125H11.2669V7.75H7.66687V12.125ZM13.0669 12.125H16.6669V7.75H13.0669V12.125ZM18.4669 12.125H22.0669V7.75H18.4669V12.125ZM11.2669 18.25V13.875H7.66687V18.25H11.2669ZM13.0669 18.25H16.6669V13.875H13.0669V18.25ZM18.4669 18.25H22.0669V13.875H18.4669V18.25Z" fill="#181818"/>
</g>
</svg>
