<svg width="40" height="40" viewBox="0 0 40 40" fill="none" xmlns="http://www.w3.org/2000/svg">
<mask id="mask0_640_22737" style="mask-type:alpha" maskUnits="userSpaceOnUse" x="0" y="0" width="40" height="40">
<rect width="40" height="40" fill="#D9D9D9"/>
</mask>
<g mask="url(#mask0_640_22737)">
<path d="M11.2 28C10.595 28 10.0771 27.7919 9.64625 27.3758C9.21542 26.9596 9 26.4594 9 25.875V13.125C9 12.5406 9.21542 12.0404 9.64625 11.6242C10.0771 11.2081 10.595 11 11.2 11H28.8C29.405 11 29.9229 11.2081 30.3538 11.6242C30.7846 12.0404 31 12.5406 31 13.125V25.875C31 26.4594 30.7846 26.9596 30.3538 27.3758C29.9229 27.7919 29.405 28 28.8 28H11.2ZM11.2 18.4375H15.6V13.125H11.2V18.4375ZM17.8 18.4375H22.2V13.125H17.8V18.4375ZM24.4 18.4375H28.8V13.125H24.4V18.4375ZM15.6 25.875V20.5625H11.2V25.875H15.6ZM17.8 25.875H22.2V20.5625H17.8V25.875ZM24.4 25.875H28.8V20.5625H24.4V25.875Z" fill="#1C1B1F"/>
</g>
</svg>
