<svg width="30" height="30" viewBox="0 0 30 30" fill="none" xmlns="http://www.w3.org/2000/svg">
<mask id="mask0_2006_3681" style="mask-type:alpha" maskUnits="userSpaceOnUse" x="3" y="3" width="24" height="24">
<rect x="3" y="3" width="24" height="24" fill="#D9D9D9"/>
</mask>
<g mask="url(#mask0_2006_3681)">
<path d="M7.66687 22C7.17187 22 5.86523 22 5.86523 22C5.86523 22 5.86687 20.7313 5.86687 20.25V9.75C5.86687 9.26875 5.86523 8.00006 5.86523 8.00006C5.86523 8.00006 7.17187 8 7.66687 8H22.0669C22.5619 8 23.8688 8.00003 23.8688 8.00003C23.8688 8.00003 23.8669 9.26875 23.8669 9.75V20.25C23.8669 20.7313 23.8688 22 23.8688 22C23.8688 22 22.5619 22 22.0669 22H7.66687ZM7.66687 14.125H11.2669V9.75H7.66687V14.125ZM13.0669 14.125H16.6669V9.75H13.0669V14.125ZM18.4669 14.125H22.0669V9.75H18.4669V14.125ZM11.2669 20.25V15.875H7.66687V20.25H11.2669ZM13.0669 20.25H16.6669V15.875H13.0669V20.25ZM18.4669 20.25H22.0669V15.875H18.4669V20.25Z" fill="black"/>
</g>
</svg>
