<svg width="20" height="20" viewBox="0 0 30 30" fill="none" xmlns="http://www.w3.org/2000/svg">
<mask id="mask0_2006_3554" style="mask-type:alpha" maskUnits="userSpaceOnUse" x="7" y="7" width="16" height="17">
<rect x="7" y="7.87891" width="16" height="16" fill="#D9D9D9"/>
</mask>
<g mask="url(#mask0_2006_3554)">
</g>
<g clip-path="url(#clip0_2006_3554)">
<path d="M18.568 8.70483H16.6055V10.3867H18.568V8.70483Z" fill="black"/>
<path d="M18.3786 8.86408V10.2274H16.7877V8.86408H18.3786ZM18.7503 8.54553H16.416V10.546H18.7503V8.54553Z" fill="black"/>
<path d="M16.2321 10.7053H14.2695V12.3872H16.2321V10.7053Z" fill="black"/>
<path d="M16.0465 10.8646V12.2279H14.4557V10.8646H16.0465ZM16.4182 10.546H14.084V12.5465H16.4182V10.546Z" fill="black"/>
<path d="M13.8981 12.7057H11.9355V14.3876H13.8981V12.7057Z" fill="black"/>
<path d="M13.7126 12.8649V14.2283H12.1217V12.8649H13.7126ZM14.0843 12.5464H11.75V14.5468H14.0843V12.5464Z" fill="black"/>
<path d="M13.8981 16.7035H11.9355V18.3854H13.8981V16.7035Z" fill="black"/>
<path d="M13.7126 16.8627V18.2261H12.1217V16.8627H13.7126ZM14.0843 16.5442H11.75V18.5446H14.0843V16.5442Z" fill="black"/>
<path d="M11.5641 14.7062H9.60156V16.3881H11.5641V14.7062Z" fill="black"/>
<path d="M11.3786 14.8654V16.2288H9.78771V14.8654H11.3786ZM11.7503 14.5469H9.41602V16.5473H11.7503V14.5469Z" fill="black"/>
<path d="M18.568 20.7043H16.6055V22.3863H18.568V20.7043Z" fill="black"/>
<path d="M18.3786 20.8636V22.227H16.7877V20.8636H18.3786ZM18.7503 20.545H16.416V22.5455H18.7503V20.545Z" fill="black"/>
<path d="M16.2321 18.704H14.2695V20.3859H16.2321V18.704Z" fill="black"/>
<path d="M16.0465 18.8632V20.2266H14.4557V18.8632H16.0465ZM16.4182 18.5447H14.084V20.5451H16.4182V18.5447Z" fill="black"/>
</g>
<defs>
<clipPath id="clip0_2006_3554">
<rect width="9.33333" height="14" fill="white" transform="translate(9.41602 8.54553)"/>
</clipPath>
</defs>
</svg>
