<svg width="30" height="30" viewBox="0 0 30 30" fill="none" xmlns="http://www.w3.org/2000/svg">
<mask id="mask0_2006_3675" style="mask-type:alpha" maskUnits="userSpaceOnUse" x="3" y="3" width="24" height="24">
<rect x="3" y="3" width="24" height="24" fill="#D9D9D9"/>
</mask>
<g mask="url(#mask0_2006_3675)">
<path d="M9.75033 12.3H20.25V7.8H9.75033V12.3ZM9.75033 14.1C9.26909 14.1 8.00037 14.1 8.00037 14.1C8.00037 14.1 8.00037 12.795 8.00037 12.3V7.8C8.00037 7.305 8.00037 6.00022 8.00037 6.00022C8.00037 6.00022 9.26909 6 9.75033 6H20.25C20.7313 6 22 6 22 6C22 6 22 7.305 22 7.8V12.3C22 12.795 22 14.1 22 14.1C22 14.1 20.7313 14.1 20.25 14.1H9.75033ZM9.75033 22.2H20.25V17.7H9.75033V22.2ZM9.75033 24C9.26909 24 8 24 8 24C8 24 8.00037 22.695 8.00037 22.2V17.7C8.00037 17.205 8.00016 15.9 8.00016 15.9C8.00016 15.9 9.26909 15.9 9.75033 15.9H20.25C20.7313 15.9 21.9998 15.9 21.9998 15.9C21.9998 15.9 22 17.205 22 17.7V22.2C22 22.695 21.9998 24 21.9998 24C21.9998 24 20.7313 24 20.25 24H9.75033Z" fill="#181818"/>
</g>
</svg>
