<svg width="40" height="40" viewBox="0 0 40 40" fill="none" xmlns="http://www.w3.org/2000/svg">
<mask id="mask0_631_22413" style="mask-type:alpha" maskUnits="userSpaceOnUse" x="8" y="8" width="24" height="24">
<rect x="8" y="8" width="24" height="24" fill="#D9D9D9"/>
</mask>
<g mask="url(#mask0_631_22413)">
<path d="M14 17H26V12H14V17ZM14 19C13.45 19 12.9792 18.8042 12.5875 18.4125C12.1958 18.0208 12 17.55 12 17V12C12 11.45 12.1958 10.9792 12.5875 10.5875C12.9792 10.1958 13.45 10 14 10H26C26.55 10 27.0208 10.1958 27.4125 10.5875C27.8042 10.9792 28 11.45 28 12V17C28 17.55 27.8042 18.0208 27.4125 18.4125C27.0208 18.8042 26.55 19 26 19H14ZM14 28H26V23H14V28ZM14 30C13.45 30 12.9792 29.8042 12.5875 29.4125C12.1958 29.0208 12 28.55 12 28V23C12 22.45 12.1958 21.9792 12.5875 21.5875C12.9792 21.1958 13.45 21 14 21H26C26.55 21 27.0208 21.1958 27.4125 21.5875C27.8042 21.9792 28 22.45 28 23V28C28 28.55 27.8042 29.0208 27.4125 29.4125C27.0208 29.8042 26.55 30 26 30H14Z" fill="#1C1B1F"/>
</g>
</svg>
