<svg width="50" height="50" viewBox="0 0 50 50" fill="none" xmlns="http://www.w3.org/2000/svg">
<circle cx="25" cy="25" r="25" fill="#FFEB01"/>
<path d="M14.9102 12.0325L16.0713 14.9506L12.6938 17.7092L10.6357 17.1099C10.6357 17.1099 9.52685 16.1501 9.89688 14.7109C10.2669 13.2717 13.0102 11.8721 13.0102 11.8721L14.9102 12.0316V12.0325Z" fill="black"/>
<path d="M25.8926 13.9563C26.066 12.874 27.327 11.9525 27.327 11.9525L28.3705 11.8721C28.3705 11.8721 29.414 12.1531 29.4571 13.155C29.5002 14.1569 29.3268 14.3178 29.3268 14.3178L28.3274 15.5203L26.3718 15.1191L25.8936 13.9563H25.8926Z" fill="black"/>
<path d="M30.5002 30.7173L33.1667 28.6553H37.4531L39.8812 29.7801L40.9773 31.7297L41.0717 36.491L40.4534 37.7653L34.12 38.0282L32.5 38.1406L31.024 37.1281L30.3574 32.0669L30.5002 30.7173Z" fill="black"/>
</svg>
